<svg xmlns="http://www.w3.org/2000/svg" xmlns:xlink="http://www.w3.org/1999/xlink" width="500" zoomAndPan="magnify" viewBox="0 0 375 374.999991" height="500" preserveAspectRatio="xMidYMid meet" version="1.0"><defs><g/></defs><g fill="#000000" fill-opacity="1"><g transform="translate(156.966234, 235.278928)"><g><path d="M 13.953125 -14.90625 L 13.953125 -120.203125 C 13.953125 -121.859375 14.332031 -123.582031 15.09375 -125.375 C 15.726562 -127.15625 16.75 -128.8125 18.15625 -130.34375 C 19.550781 -131.738281 21.269531 -132.945312 23.3125 -133.96875 C 25.226562 -134.863281 27.519531 -135.3125 30.1875 -135.3125 C 32.863281 -135.3125 35.222656 -134.863281 37.265625 -133.96875 C 39.179688 -132.945312 40.835938 -131.738281 42.234375 -130.34375 C 43.640625 -128.9375 44.722656 -127.34375 45.484375 -125.5625 C 46.117188 -123.78125 46.4375 -121.992188 46.4375 -120.203125 L 46.4375 -15.09375 C 46.4375 -13.4375 46.117188 -11.71875 45.484375 -9.9375 C 44.847656 -8.15625 43.894531 -6.5625 42.625 -5.15625 C 41.21875 -3.625 39.492188 -2.414062 37.453125 -1.53125 C 35.421875 -0.507812 33.066406 0 30.390625 0 C 27.835938 0 25.539062 -0.445312 23.5 -1.34375 C 21.46875 -2.226562 19.75 -3.375 18.34375 -4.78125 C 16.945312 -6.175781 15.863281 -7.769531 15.09375 -9.5625 C 14.332031 -11.34375 13.953125 -13.125 13.953125 -14.90625 Z M 13.953125 -14.90625 "/></g></g></g></svg>