<svg xmlns="http://www.w3.org/2000/svg" xmlns:xlink="http://www.w3.org/1999/xlink" width="500" zoomAndPan="magnify" viewBox="0 0 375 374.999991" height="500" preserveAspectRatio="xMidYMid meet" version="1.0"><defs><g/></defs><g fill="#000000" fill-opacity="1"><g transform="translate(111.711998, 235.146664)"><g><path d="M 46.125 -77.375 L 46.125 -14.859375 C 46.125 -13.210938 45.804688 -11.5 45.171875 -9.71875 C 44.535156 -7.9375 43.582031 -6.347656 42.3125 -4.953125 C 40.914062 -3.429688 39.203125 -2.222656 37.171875 -1.328125 C 35.128906 -0.316406 32.773438 0.1875 30.109375 0.1875 C 27.441406 0.1875 25.15625 -0.316406 23.25 -1.328125 C 21.21875 -2.222656 19.566406 -3.429688 18.296875 -4.953125 C 16.898438 -6.484375 15.882812 -8.132812 15.25 -9.90625 C 14.488281 -11.6875 14.109375 -13.40625 14.109375 -15.0625 L 14.109375 -119.890625 C 14.109375 -121.660156 14.488281 -123.4375 15.25 -125.21875 C 15.882812 -127 16.898438 -128.648438 18.296875 -130.171875 C 19.691406 -131.566406 21.40625 -132.773438 23.4375 -133.796875 C 25.34375 -134.679688 27.628906 -135.125 30.296875 -135.125 C 32.972656 -135.125 35.390625 -134.617188 37.546875 -133.609375 C 39.703125 -132.460938 41.484375 -131.128906 42.890625 -129.609375 L 104.453125 -58.328125 L 104.453125 -119.6875 C 104.453125 -121.34375 104.832031 -123.0625 105.59375 -124.84375 C 106.226562 -126.613281 107.242188 -128.265625 108.640625 -129.796875 C 110.035156 -131.191406 111.75 -132.398438 113.78125 -133.421875 C 115.6875 -134.304688 117.972656 -134.75 120.640625 -134.75 C 123.304688 -134.75 125.660156 -134.304688 127.703125 -133.421875 C 129.609375 -132.398438 131.257812 -131.191406 132.65625 -129.796875 C 134.050781 -128.398438 135.128906 -126.8125 135.890625 -125.03125 C 136.523438 -123.25 136.84375 -121.535156 136.84375 -119.890625 L 136.84375 -14.859375 C 136.84375 -13.210938 136.523438 -11.5 135.890625 -9.71875 C 135.128906 -7.9375 134.113281 -6.347656 132.84375 -4.953125 C 131.445312 -3.429688 129.796875 -2.222656 127.890625 -1.328125 C 125.859375 -0.316406 123.507812 0.1875 120.84375 0.1875 C 118.164062 0.1875 115.75 -0.382812 113.59375 -1.53125 C 111.4375 -2.539062 109.65625 -3.875 108.25 -5.53125 Z M 46.125 -77.375 "/></g></g></g></svg>