<svg xmlns="http://www.w3.org/2000/svg" xmlns:xlink="http://www.w3.org/1999/xlink" width="500" zoomAndPan="magnify" viewBox="0 0 375 374.999991" height="500" preserveAspectRatio="xMidYMid meet" version="1.0"><defs><g/></defs><g fill="#000000" fill-opacity="1"><g transform="translate(115.987958, 235.424343)"><g><path d="M 30.296875 -135.53125 L 111.953125 -135.53125 C 114.640625 -135.53125 117.003906 -135.082031 119.046875 -134.1875 C 120.960938 -133.164062 122.625 -131.953125 124.03125 -130.546875 C 125.4375 -129.140625 126.523438 -127.539062 127.296875 -125.75 C 127.929688 -123.96875 128.25 -122.242188 128.25 -120.578125 C 128.25 -118.921875 127.929688 -117.195312 127.296875 -115.40625 C 126.648438 -113.488281 125.691406 -111.828125 124.421875 -110.421875 C 123.015625 -109.015625 121.285156 -107.863281 119.234375 -106.96875 C 117.191406 -105.945312 114.828125 -105.4375 112.140625 -105.4375 L 89.90625 -105.4375 C 89.519531 -105.4375 89.007812 -105.179688 88.375 -104.671875 C 87.738281 -104.160156 87.421875 -103.394531 87.421875 -102.375 L 87.421875 -14.953125 C 87.421875 -13.285156 87.097656 -11.5625 86.453125 -9.78125 C 85.816406 -7.988281 84.859375 -6.390625 83.578125 -4.984375 C 82.171875 -3.453125 80.445312 -2.238281 78.40625 -1.34375 C 76.363281 -0.320312 74 0.1875 71.3125 0.1875 C 68.625 0.1875 66.320312 -0.320312 64.40625 -1.34375 C 62.363281 -2.238281 60.703125 -3.453125 59.421875 -4.984375 C 58.015625 -6.515625 56.992188 -8.175781 56.359375 -9.96875 C 55.585938 -11.757812 55.203125 -13.484375 55.203125 -15.140625 L 55.203125 -102.5625 C 55.203125 -103.582031 54.945312 -104.347656 54.4375 -104.859375 C 53.800781 -105.367188 53.226562 -105.625 52.71875 -105.625 L 30.484375 -105.625 C 27.921875 -105.625 25.617188 -106.070312 23.578125 -106.96875 C 21.535156 -107.738281 19.8125 -108.828125 18.40625 -110.234375 C 17 -111.640625 15.910156 -113.234375 15.140625 -115.015625 C 14.378906 -116.679688 14 -118.472656 14 -120.390625 C 14 -122.046875 14.378906 -123.769531 15.140625 -125.5625 C 15.785156 -127.351562 16.8125 -129.015625 18.21875 -130.546875 C 19.625 -131.953125 21.347656 -133.164062 23.390625 -134.1875 C 25.304688 -135.082031 27.609375 -135.53125 30.296875 -135.53125 Z M 30.296875 -135.53125 "/></g></g></g></svg>