<svg xmlns="http://www.w3.org/2000/svg" xmlns:xlink="http://www.w3.org/1999/xlink" width="500" zoomAndPan="magnify" viewBox="0 0 375 374.999991" height="500" preserveAspectRatio="xMidYMid meet" version="1.0"><defs><g/></defs><g fill="#000000" fill-opacity="1"><g transform="translate(104.474316, 247.999996)"><g><path d="M 101.046875 -129.765625 C 101.046875 -131.691406 101.457031 -133.625 102.28125 -135.5625 C 102.976562 -137.488281 104.082031 -139.273438 105.59375 -140.921875 C 107.101562 -142.441406 108.960938 -143.753906 111.171875 -144.859375 C 113.234375 -145.816406 115.710938 -146.296875 118.609375 -146.296875 C 121.503906 -146.296875 124.050781 -145.816406 126.25 -144.859375 C 128.320312 -143.753906 130.113281 -142.441406 131.625 -140.921875 C 133.144531 -139.410156 134.316406 -137.691406 135.140625 -135.765625 C 135.828125 -133.835938 136.171875 -131.910156 136.171875 -129.984375 L 136.171875 -54.765625 C 136.171875 -48.285156 134.863281 -41.804688 132.25 -35.328125 C 129.632812 -28.722656 125.914062 -22.800781 121.09375 -17.5625 C 116.269531 -12.332031 110.347656 -8.0625 103.328125 -4.75 C 96.296875 -1.445312 88.300781 0.203125 79.34375 0.203125 L 72.328125 0.203125 C 63.367188 0.203125 55.378906 -1.445312 48.359375 -4.75 C 41.328125 -8.0625 35.398438 -12.332031 30.578125 -17.5625 C 25.617188 -22.800781 21.832031 -28.722656 19.21875 -35.328125 C 16.601562 -41.804688 15.296875 -48.285156 15.296875 -54.765625 L 15.296875 -129.984375 C 15.296875 -131.910156 15.707031 -133.835938 16.53125 -135.765625 C 17.21875 -137.691406 18.320312 -139.484375 19.84375 -141.140625 C 21.351562 -142.648438 23.210938 -143.957031 25.421875 -145.0625 C 27.484375 -146.03125 29.960938 -146.515625 32.859375 -146.515625 C 35.753906 -146.515625 38.300781 -146.03125 40.5 -145.0625 C 42.5625 -143.957031 44.351562 -142.648438 45.875 -141.140625 C 47.382812 -139.617188 48.554688 -137.894531 49.390625 -135.96875 C 50.078125 -134.039062 50.421875 -132.113281 50.421875 -130.1875 L 50.421875 -54.96875 C 50.421875 -52.070312 50.972656 -49.316406 52.078125 -46.703125 C 53.179688 -43.941406 54.765625 -41.597656 56.828125 -39.671875 C 58.753906 -37.609375 61.097656 -35.957031 63.859375 -34.71875 C 66.472656 -33.476562 69.363281 -32.859375 72.53125 -32.859375 L 79.5625 -32.859375 C 82.726562 -32.859375 85.6875 -33.476562 88.4375 -34.71875 C 91.0625 -35.957031 93.40625 -37.609375 95.46875 -39.671875 C 97.394531 -41.597656 98.910156 -43.941406 100.015625 -46.703125 C 100.972656 -49.316406 101.453125 -52.070312 101.453125 -54.96875 Z M 101.046875 -129.765625 "/></g></g></g></svg>