<svg xmlns="http://www.w3.org/2000/svg" xmlns:xlink="http://www.w3.org/1999/xlink" width="500" zoomAndPan="magnify" viewBox="0 0 375 374.999991" height="500" preserveAspectRatio="xMidYMid meet" version="1.0"><defs><g/></defs><g fill="#000000" fill-opacity="1"><g transform="translate(119.452525, 235.252545)"><g><path d="M 68.1875 -90.15625 L 91.875 -127.984375 C 93.144531 -130.015625 94.992188 -131.734375 97.421875 -133.140625 C 99.710938 -134.535156 102.445312 -135.234375 105.625 -135.234375 C 108.300781 -135.234375 110.660156 -134.789062 112.703125 -133.90625 C 114.734375 -132.882812 116.453125 -131.671875 117.859375 -130.265625 C 119.128906 -128.742188 120.082031 -127.09375 120.71875 -125.3125 C 121.351562 -123.519531 121.671875 -121.800781 121.671875 -120.15625 C 121.671875 -117.476562 120.910156 -114.863281 119.390625 -112.3125 L 84.8125 -57.109375 C 84.425781 -56.734375 84.234375 -56.160156 84.234375 -55.390625 L 84.234375 -14.90625 C 84.234375 -13.25 83.914062 -11.523438 83.28125 -9.734375 C 82.519531 -7.953125 81.503906 -6.363281 80.234375 -4.96875 C 78.828125 -3.4375 77.171875 -2.226562 75.265625 -1.34375 C 73.222656 -0.320312 70.863281 0.1875 68.1875 0.1875 C 65.519531 0.1875 63.164062 -0.320312 61.125 -1.34375 C 59.082031 -2.226562 57.425781 -3.4375 56.15625 -4.96875 C 54.757812 -6.5 53.742188 -8.15625 53.109375 -9.9375 C 52.335938 -11.71875 51.953125 -13.4375 51.953125 -15.09375 L 51.953125 -55.578125 C 51.953125 -56.347656 51.765625 -56.925781 51.390625 -57.3125 L 16.8125 -112.515625 C 15.28125 -115.054688 14.515625 -117.664062 14.515625 -120.34375 C 14.515625 -122 14.894531 -123.71875 15.65625 -125.5 C 16.300781 -127.28125 17.320312 -128.9375 18.71875 -130.46875 C 19.988281 -131.863281 21.644531 -133.070312 23.6875 -134.09375 C 25.59375 -134.988281 27.882812 -135.4375 30.5625 -135.4375 C 33.75 -135.4375 36.550781 -134.734375 38.96875 -133.328125 C 41.257812 -131.929688 43.101562 -130.210938 44.5 -128.171875 Z M 68.1875 -90.15625 "/></g></g></g></svg>